<svg id="some" width="44" height="44" viewBox="0 0 44 44" fill="none" xmlns="http://www.w3.org/2000/svg">
<path d="M36.5745 21.8832C36.5405 19.1149 35.7133 16.414 34.1905 14.0986C32.6678 11.7831 30.513 9.9495 27.9798 8.81374C25.4464 7.67798 22.6403 7.28736 19.8917 7.68784C17.1432 8.08835 14.5667 9.26328 12.4657 11.0743C10.3647 12.8853 8.82667 15.257 8.03277 17.91C7.23888 20.5631 7.22215 23.3869 7.9846 26.0491C8.74704 28.7114 10.2569 31.1008 12.3363 32.9365C14.4157 34.7721 16.9781 35.9773 19.7217 36.41V26.1142H16.0779V21.8832H19.7217V18.6692C19.6374 17.9219 19.7186 17.1652 19.9598 16.4526C20.2011 15.74 20.5962 15.0888 21.1175 14.545C21.6387 14.0013 22.2733 13.5781 22.9766 13.3056C23.6798 13.033 24.4347 12.9175 25.1875 12.9674C26.2803 12.9823 27.3705 13.0795 28.4487 13.258V16.8897H26.6268C26.3127 16.8502 25.9935 16.8816 25.6933 16.9815C25.3928 17.0814 25.1188 17.2473 24.8914 17.467C24.6641 17.6866 24.4891 17.9544 24.3796 18.2504C24.27 18.5466 24.2286 18.8635 24.2583 19.1776V21.9195H28.303L27.6471 26.1505H24.2765V36.3192C27.7198 35.7765 30.8539 34.0216 33.1101 31.373C35.3664 28.7244 36.5955 25.3577 36.5745 21.8832Z" fill="#FF5900"/>
</svg>

