<svg width="58" height="59" viewBox="0 0 58 59" fill="none" xmlns="http://www.w3.org/2000/svg">
<g clip-path="url(#clip0_296_5655)">
<path d="M29.0363 9.73499C34.3056 9.73499 34.9631 9.75471 37.0304 9.85335C39.0959 9.95199 40.5019 10.2815 41.7392 10.7707C43.0192 11.2718 44.0975 11.9505 45.1758 13.0454C46.162 14.0316 46.925 15.2245 47.4119 16.5412C47.8909 17.7979 48.2167 19.2301 48.3137 21.3312C48.4049 23.4342 48.4301 24.103 48.4301 29.4631C48.4301 34.8232 48.4107 35.492 48.3137 37.595C48.2167 39.6961 47.8909 41.1264 47.4119 42.385C46.9264 43.7024 46.1632 44.8957 45.1758 45.8809C44.206 46.8837 43.0334 47.6598 41.7392 48.1555C40.5039 48.6428 39.0959 48.9742 37.0304 49.0729C34.9631 49.1656 34.3056 49.1912 29.0363 49.1912C23.767 49.1912 23.1096 49.1715 21.0422 49.0729C18.9768 48.9742 17.5707 48.6428 16.3334 48.1555C15.0386 47.6613 13.8656 46.8849 12.8968 45.8809C11.9105 44.8948 11.1474 43.7018 10.6608 42.385C10.1798 41.1283 9.85591 39.6961 9.75894 37.595C9.66779 35.492 9.64258 34.8232 9.64258 29.4631C9.64258 24.103 9.66197 23.4342 9.75894 21.3312C9.85591 19.2282 10.1798 17.7998 10.6608 16.5412C11.1461 15.2237 11.9093 14.0304 12.8968 13.0454C13.8659 12.0417 15.0388 11.2654 16.3334 10.7707C17.5707 10.2815 18.9749 9.95199 21.0422 9.85335C23.1096 9.76063 23.767 9.73499 29.0363 9.73499ZM29.0363 19.599C26.4646 19.599 23.9981 20.6383 22.1796 22.4882C20.3611 24.338 19.3395 26.847 19.3395 29.4631C19.3395 32.0792 20.3611 34.5882 22.1796 36.4381C23.9981 38.2879 26.4646 39.3272 29.0363 39.3272C31.6081 39.3272 34.0745 38.2879 35.8931 36.4381C37.7116 34.5882 38.7332 32.0792 38.7332 29.4631C38.7332 26.847 37.7116 24.338 35.8931 22.4882C34.0745 20.6383 31.6081 19.599 29.0363 19.599ZM41.6423 19.1058C41.6423 18.4518 41.3869 17.8246 40.9322 17.3621C40.4776 16.8996 39.861 16.6398 39.218 16.6398C38.5751 16.6398 37.9585 16.8996 37.5039 17.3621C37.0492 17.8246 36.7938 18.4518 36.7938 19.1058C36.7938 19.7599 37.0492 20.3871 37.5039 20.8496C37.9585 21.312 38.5751 21.5719 39.218 21.5719C39.861 21.5719 40.4776 21.312 40.9322 20.8496C41.3869 20.3871 41.6423 19.7599 41.6423 19.1058ZM29.0363 23.5447C30.5794 23.5447 32.0593 24.1682 33.1504 25.2781C34.2415 26.3881 34.8545 27.8934 34.8545 29.4631C34.8545 31.0328 34.2415 32.5382 33.1504 33.6481C32.0593 34.758 30.5794 35.3815 29.0363 35.3815C27.4933 35.3815 26.0134 34.758 24.9223 33.6481C23.8312 32.5382 23.2182 31.0328 23.2182 29.4631C23.2182 27.8934 23.8312 26.3881 24.9223 25.2781C26.0134 24.1682 27.4933 23.5447 29.0363 23.5447Z" fill="#FF5900"/>
</g>
<defs>
<clipPath id="clip0_296_5655">
<rect width="58" height="59" fill="white"/>
</clipPath>
</defs>
</svg>
