<svg width="43" height="44" viewBox="0 0 43 44" fill="none" xmlns="http://www.w3.org/2000/svg">
<g clip-path="url(#clip0_296_2037)">
<path d="M21.5271 7.26001C25.4336 7.26001 25.921 7.27472 27.4537 7.34828C28.985 7.42185 30.0274 7.66755 30.9447 8.03242C31.8937 8.40611 32.6931 8.91222 33.4925 9.72877C34.2236 10.4642 34.7894 11.3539 35.1503 12.3358C35.5055 13.273 35.747 14.3411 35.8189 15.908C35.8865 17.4764 35.9052 17.9751 35.9052 21.9725C35.9052 25.9699 35.8908 26.4686 35.8189 28.037C35.747 29.6039 35.5055 30.6705 35.1503 31.6092C34.7904 32.5917 34.2245 33.4815 33.4925 34.2163C32.7736 34.9641 31.9042 35.543 30.9447 35.9126C30.0288 36.276 28.985 36.5232 27.4537 36.5967C25.921 36.6659 25.4336 36.685 21.5271 36.685C17.6205 36.685 17.1331 36.6703 15.6004 36.5967C14.0691 36.5232 13.0267 36.276 12.1094 35.9126C11.1494 35.544 10.2798 34.965 9.56157 34.2163C8.83031 33.4809 8.26457 32.5912 7.90378 31.6092C7.5472 30.672 7.30709 29.6039 7.23519 28.037C7.16762 26.4686 7.14893 25.9699 7.14893 21.9725C7.14893 17.9751 7.1633 17.4764 7.23519 15.908C7.30709 14.3397 7.5472 13.2745 7.90378 12.3358C8.26357 11.3533 8.82945 10.4634 9.56157 9.72877C10.28 8.98024 11.1495 8.4013 12.1094 8.03242C13.0267 7.66755 14.0677 7.42185 15.6004 7.34828C17.1331 7.27914 17.6205 7.26001 21.5271 7.26001ZM21.5271 14.6163C19.6204 14.6163 17.7918 15.3913 16.4436 16.7709C15.0954 18.1504 14.338 20.0215 14.338 21.9725C14.338 23.9235 15.0954 25.7946 16.4436 27.1742C17.7918 28.5537 19.6204 29.3288 21.5271 29.3288C23.4337 29.3288 25.2623 28.5537 26.6105 27.1742C27.9587 25.7946 28.7161 23.9235 28.7161 21.9725C28.7161 20.0215 27.9587 18.1504 26.6105 16.7709C25.2623 15.3913 23.4337 14.6163 21.5271 14.6163ZM30.8728 14.2484C30.8728 13.7607 30.6835 13.2929 30.3464 12.948C30.0094 12.6031 29.5522 12.4094 29.0756 12.4094C28.5989 12.4094 28.1418 12.6031 27.8047 12.948C27.4677 13.2929 27.2783 13.7607 27.2783 14.2484C27.2783 14.7362 27.4677 15.204 27.8047 15.5489C28.1418 15.8938 28.5989 16.0875 29.0756 16.0875C29.5522 16.0875 30.0094 15.8938 30.3464 15.5489C30.6835 15.204 30.8728 14.7362 30.8728 14.2484ZM21.5271 17.5588C22.671 17.5588 23.7682 18.0238 24.5771 18.8515C25.386 19.6793 25.8405 20.8019 25.8405 21.9725C25.8405 23.1431 25.386 24.2658 24.5771 25.0935C23.7682 25.9212 22.671 26.3863 21.5271 26.3863C20.3831 26.3863 19.2859 25.9212 18.477 25.0935C17.6681 24.2658 17.2136 23.1431 17.2136 21.9725C17.2136 20.8019 17.6681 19.6793 18.477 18.8515C19.2859 18.0238 20.3831 17.5588 21.5271 17.5588Z" fill="#FF5900"/>
</g>
<defs>
<clipPath id="clip0_296_2037">
<rect width="43" height="44" fill="white"/>
</clipPath>
</defs>
</svg>
