<svg width="1359" height="1235" viewBox="0 0 1359 1235" fill="none" xmlns="http://www.w3.org/2000/svg">
<path d="M1357 1234.5C1342.33 1154.17 1295.3 987.2 1224.5 962C1136 930.5 1038 1037.5 937.5 1016.5C857.1 999.7 807.5 936 789 906C770.5 876 735.352 824.51 781.5 729.5C807 677 885.48 656.567 905 719C931.104 802.493 730 769 673.5 649C618.855 532.939 685 339.828 685 293.5C685 210 624.5 39 469 37C344.6 35.4 245 122 137.5 86.5C30 51 68.5 6.8 0.5 2" stroke="#FF5900" stroke-width="3" stroke-dasharray="6 6"/>
</svg>
