<svg width="1512" height="1785" viewBox="0 0 1512 1785" fill="none" xmlns="http://www.w3.org/2000/svg">
<path d="M1561.5 1784C1546.83 1703.67 1499.8 1536.7 1429 1511.5C1340.5 1480 1242.5 1587 1142 1566C1061.6 1549.2 1012 1485.5 993.5 1455.5C975 1425.5 939.852 1374.01 986 1279C1011.5 1226.5 1089.98 1206.07 1109.5 1268.5C1135.6 1351.99 935.899 1328.43 878 1214C814.5 1088.5 823 1008 814.5 880C806 752 848.5 582.328 848.5 536C848.5 452.5 765.5 270 610 268C485.6 266.4 386 353 278.5 317.5C171 282 209.5 237.8 141.5 233C56.5 227 -26.5 104.5 -24.5 0.5" stroke="#FF5900" stroke-width="3" stroke-dasharray="6 6"/>
</svg>
