<svg width="41" height="41" viewBox="0 0 41 41" fill="none" xmlns="http://www.w3.org/2000/svg">
<path d="M31.8056 7.17505H9.13743C9.13033 7.17505 9.12235 7.17505 9.11348 7.17505C8.05014 7.17505 7.18722 8.02998 7.1748 9.08978V31.8573C7.18722 32.918 8.05014 33.7738 9.11348 33.7738C9.12235 33.7738 9.13033 33.7738 9.1392 33.7738H31.8029C31.81 33.7738 31.8189 33.7738 31.8278 33.7738C32.892 33.7738 33.7567 32.9197 33.7736 31.8591V31.8573V9.09156C33.7567 8.02998 32.892 7.17505 31.8269 7.17505C31.818 7.17505 31.81 7.17505 31.8012 7.17505H31.8056ZM15.0634 29.8415H11.1134V17.1496H15.0634V29.8415ZM13.0893 15.4131C11.8255 15.4131 10.8021 14.3888 10.8021 13.1259C10.8021 11.863 11.8264 10.8387 13.0893 10.8387C14.3522 10.8387 15.3765 11.8621 15.3765 13.125C15.3765 13.1259 15.3765 13.1268 15.3765 13.1285C15.3765 14.3906 14.3531 15.414 13.0911 15.414C13.0902 15.414 13.0893 15.414 13.0884 15.414L13.0893 15.4131ZM29.835 29.8415H25.8965V23.6698C25.8965 22.1976 25.8663 20.3041 23.8443 20.3041C21.7903 20.3041 21.4772 21.9058 21.4772 23.5616V29.8423H17.5387V17.1505H21.322V18.8807H21.3735C22.1078 17.6436 23.4363 16.8276 24.9555 16.8276C25.0096 16.8276 25.0628 16.8285 25.116 16.8303H25.108C29.0989 16.8303 29.8368 19.4572 29.8368 22.876V29.8423L29.835 29.8415Z" fill="#FF5900"/>
</svg>
