<svg width="81" height="81" viewBox="0 0 81 81" fill="none" xmlns="http://www.w3.org/2000/svg">
<path d="M40.5 40.5C36.7875 40.5 33.75 37.4625 33.75 33.75C33.75 30.0375 36.7875 27 40.5 27C44.2125 27 47.25 30.0375 47.25 33.75C47.25 37.4625 44.2125 40.5 40.5 40.5ZM60.75 34.425C60.75 22.1737 51.8063 13.5 40.5 13.5C29.1938 13.5 20.25 22.1737 20.25 34.425C20.25 42.3225 26.8312 52.785 40.5 65.2725C54.1688 52.785 60.75 42.3225 60.75 34.425ZM40.5 6.75C54.675 6.75 67.5 17.6175 67.5 34.425C67.5 45.63 58.4888 58.8937 40.5 74.25C22.5113 58.8937 13.5 45.63 13.5 34.425C13.5 17.6175 26.325 6.75 40.5 6.75Z" fill="#FF5900"/>
</svg>
