<svg width="59" height="59" viewBox="0 0 59 59" fill="none" xmlns="http://www.w3.org/2000/svg">
<path d="M30.3342 11.3141C32.3219 11.2837 34.2949 11.2995 36.2667 11.2837C36.3323 13.7513 37.3328 15.9723 38.9245 17.6174L38.9221 17.615C40.6353 19.1592 42.8645 20.1604 45.322 20.3305L45.356 20.3329V26.4515C43.0345 26.3932 40.8514 25.8574 38.8833 24.9365L38.9828 24.9778C38.0309 24.5197 37.2259 24.0495 36.461 23.5247L36.5241 23.566C36.5095 27.9994 36.5387 32.4329 36.4938 36.8506C36.3687 39.102 35.6208 41.1553 34.4212 42.8696L34.4454 42.832C32.4396 45.7066 29.1905 47.5935 25.4958 47.7053H25.4788C25.3294 47.7125 25.1534 47.7162 24.9761 47.7162C22.8756 47.7162 20.9122 47.1306 19.2391 46.1136L19.2877 46.1416C16.2425 44.3082 14.142 41.1711 13.7535 37.5225L13.7486 37.4727C13.7182 36.7133 13.7037 35.9539 13.734 35.2104C14.329 29.404 19.1905 24.9122 25.0999 24.9122C25.7641 24.9122 26.4149 24.9693 27.0475 25.0774L26.9795 25.0677C27.0098 27.3142 26.9188 29.5619 26.9188 31.8084C26.4052 31.6225 25.8127 31.5144 25.1946 31.5144C22.9266 31.5144 20.9972 32.9651 20.2833 34.9905L20.2724 35.0269C20.1109 35.5457 20.0174 36.1423 20.0174 36.7595C20.0174 37.0098 20.0332 37.2576 20.0623 37.5006L20.0599 37.4714C20.463 39.9573 22.5927 41.8332 25.1606 41.8332C25.2347 41.8332 25.3076 41.832 25.3804 41.8284H25.3695C27.1458 41.7749 28.6878 40.8187 29.5596 39.4057L29.5717 39.3838C29.8959 38.9319 30.1181 38.3851 30.1922 37.791L30.1934 37.774C30.3452 35.0561 30.2845 32.3539 30.299 29.636C30.3136 23.5174 30.2845 17.4133 30.3294 11.3104L30.3342 11.3141Z" fill="#FF5900"/>
</svg>
