<svg width="44" height="44" viewBox="0 0 44 44" fill="none" xmlns="http://www.w3.org/2000/svg">
<path d="M22.6223 8.43769C24.1046 8.41504 25.576 8.42682 27.0465 8.41504C27.0954 10.2553 27.8415 11.9116 29.0286 13.1385L29.0268 13.1367C30.3044 14.2883 31.9669 15.0349 33.7996 15.1618L33.825 15.1636V19.7267C32.0937 19.6832 30.4656 19.2836 28.9978 18.5968L29.0721 18.6276C28.3622 18.286 27.7618 17.9353 27.1914 17.5439L27.2385 17.5747C27.2276 20.881 27.2493 24.1873 27.2158 27.4819C27.1226 29.1609 26.5648 30.6922 25.6702 31.9706L25.6883 31.9426C24.1924 34.0864 21.7693 35.4935 19.0139 35.5769H19.0012C18.8899 35.5823 18.7586 35.585 18.6264 35.585C17.0599 35.585 15.5957 35.1483 14.3479 34.3899L14.3842 34.4107C12.1132 33.0435 10.5467 30.7039 10.257 27.9829L10.2533 27.9458C10.2307 27.3795 10.2198 26.8132 10.2425 26.2587C10.6862 21.9285 14.3117 18.5786 18.7187 18.5786C19.214 18.5786 19.6994 18.6212 20.1711 18.7019L20.1204 18.6946C20.1431 20.37 20.0752 22.0462 20.0752 23.7216C19.6921 23.583 19.2503 23.5023 18.7894 23.5023C17.0979 23.5023 15.6591 24.5842 15.1267 26.0947L15.1185 26.1218C14.9981 26.5087 14.9284 26.9536 14.9284 27.4139C14.9284 27.6006 14.9401 27.7854 14.9619 27.9666L14.9601 27.9449C15.2607 29.7988 16.8489 31.1978 18.764 31.1978C18.8192 31.1978 18.8736 31.1968 18.9279 31.1941H18.9198C20.2445 31.1543 21.3945 30.4412 22.0446 29.3874L22.0536 29.3711C22.2954 29.034 22.4611 28.6263 22.5163 28.1832L22.5173 28.1705C22.6304 26.1436 22.5852 24.1284 22.596 22.1015C22.6069 17.5385 22.5852 12.9863 22.6187 8.43497L22.6223 8.43769Z" fill="#FF5900"/>
</svg>
