<svg width="44" height="44" viewBox="0 0 44 44" fill="none" xmlns="http://www.w3.org/2000/svg">
<path d="M40.6864 12.6013C40.465 11.7657 40.0209 11.0026 39.3995 10.3901C38.7782 9.77756 38.0019 9.33747 37.1499 9.1148C31.9848 8.51842 26.7855 8.24967 21.5847 8.31023C16.384 8.24967 11.1847 8.51842 6.01944 9.1148C5.16751 9.33747 4.39122 9.77756 3.7699 10.3901C3.14856 11.0026 2.70449 11.7657 2.48302 12.6013C1.91721 15.7072 1.64212 18.8573 1.66117 22.0122C1.64117 25.1833 1.91627 28.3497 2.48302 31.4719C2.71597 32.294 3.16515 33.0417 3.78572 33.6408C4.40626 34.2398 5.17648 34.6689 6.01944 34.8852C11.1847 35.4815 16.384 35.7504 21.5847 35.6897C26.7855 35.7504 31.9848 35.4815 37.1499 34.8852C37.9929 34.6689 38.7632 34.2398 39.3836 33.6408C40.0042 33.0417 40.4535 32.294 40.6864 31.4719C41.2532 28.3497 41.5281 25.1833 41.5082 22.0122C41.5274 18.8573 41.2522 15.7072 40.6864 12.6013ZM17.5004 27.8391V16.234L27.9353 22.0122L17.5004 27.8148V27.8391Z" fill="#FF5900"/>
</svg>
